<mxfile host="app.diagrams.net" modified="2021-02-15T11:19:35.950Z" agent="5.0 (Windows NT 6.1; Win64; x64) AppleWebKit/537.36 (KHTML, like Gecko) Chrome/88.0.4324.150 Safari/537.36" etag="jKix4HlcLRIqrJpm3WCU" version="14.3.1" type="github">
  <diagram id="cRVBofQ3kv6o-dl3sJCA" name="Page-1">
    <mxGraphModel dx="1845" dy="868" grid="1" gridSize="10" guides="1" tooltips="1" connect="1" arrows="1" fold="1" page="1" pageScale="1" pageWidth="827" pageHeight="1169" math="0" shadow="0">
      <root>
        <mxCell id="0" />
        <mxCell id="1" parent="0" />
        <mxCell id="trmKKpm20j8YR0F4-xoy-1" value="" style="strokeWidth=1;shadow=0;dashed=0;align=center;html=1;shape=mxgraph.mockup.containers.browserWindow;rSize=0;strokeColor=#666666;strokeColor2=#008cff;strokeColor3=#c4c4c4;mainText=,;recursiveResize=0;" vertex="1" parent="1">
          <mxGeometry x="-120" width="827" height="740" as="geometry" />
        </mxCell>
        <mxCell id="trmKKpm20j8YR0F4-xoy-2" value="Page 1" style="strokeWidth=1;shadow=0;dashed=0;align=center;html=1;shape=mxgraph.mockup.containers.anchor;fontSize=17;fontColor=#666666;align=left;" vertex="1" parent="trmKKpm20j8YR0F4-xoy-1">
          <mxGeometry x="60" y="12" width="110" height="26" as="geometry" />
        </mxCell>
        <mxCell id="trmKKpm20j8YR0F4-xoy-3" value="https://www.calabresii.com" style="strokeWidth=1;shadow=0;dashed=0;align=center;html=1;shape=mxgraph.mockup.containers.anchor;rSize=0;fontSize=17;fontColor=#666666;align=left;" vertex="1" parent="trmKKpm20j8YR0F4-xoy-1">
          <mxGeometry x="130" y="60" width="250" height="26" as="geometry" />
        </mxCell>
        <mxCell id="trmKKpm20j8YR0F4-xoy-6" value="" style="rounded=0;whiteSpace=wrap;html=1;" vertex="1" parent="trmKKpm20j8YR0F4-xoy-1">
          <mxGeometry x="444" y="270" width="326" height="270" as="geometry" />
        </mxCell>
        <mxCell id="trmKKpm20j8YR0F4-xoy-9" value="" style="verticalLabelPosition=bottom;verticalAlign=top;html=1;shape=mxgraph.basic.smiley" vertex="1" parent="trmKKpm20j8YR0F4-xoy-1">
          <mxGeometry x="130" y="300" width="220" height="220" as="geometry" />
        </mxCell>
        <mxCell id="trmKKpm20j8YR0F4-xoy-23" style="edgeStyle=orthogonalEdgeStyle;rounded=0;orthogonalLoop=1;jettySize=auto;html=1;entryX=0.121;entryY=0.013;entryDx=0;entryDy=0;entryPerimeter=0;" edge="1" parent="trmKKpm20j8YR0F4-xoy-1" source="trmKKpm20j8YR0F4-xoy-11" target="trmKKpm20j8YR0F4-xoy-1">
          <mxGeometry relative="1" as="geometry" />
        </mxCell>
        <mxCell id="trmKKpm20j8YR0F4-xoy-11" value="" style="html=1;verticalLabelPosition=bottom;align=center;labelBackgroundColor=#ffffff;verticalAlign=top;strokeWidth=2;strokeColor=#0080F0;shadow=0;dashed=0;shape=mxgraph.ios7.icons.locked;" vertex="1" parent="trmKKpm20j8YR0F4-xoy-1">
          <mxGeometry x="103" y="50" width="24" height="40" as="geometry" />
        </mxCell>
        <mxCell id="trmKKpm20j8YR0F4-xoy-17" value="" style="rounded=0;whiteSpace=wrap;html=1;" vertex="1" parent="trmKKpm20j8YR0F4-xoy-1">
          <mxGeometry x="30" y="140" width="760" height="60" as="geometry" />
        </mxCell>
        <mxCell id="trmKKpm20j8YR0F4-xoy-20" value="&lt;h1&gt;&lt;br&gt;&lt;/h1&gt;" style="text;html=1;strokeColor=none;fillColor=none;spacing=5;spacingTop=-20;whiteSpace=wrap;overflow=hidden;rounded=0;" vertex="1" parent="trmKKpm20j8YR0F4-xoy-1">
          <mxGeometry x="30" y="140" width="760" height="60" as="geometry" />
        </mxCell>
      </root>
    </mxGraphModel>
  </diagram>
</mxfile>
